<?xml version="1.0" encoding="UTF-8" standalone="no"?>
<!-- Created with Inkscape (http://www.inkscape.org/) -->

<svg
   width="2560"
   height="1440"
   viewBox="0 0 677.33333 381"
   version="1.1"
   id="svg3003"
   inkscape:version="1.3 (0e150ed6c4, 2023-07-21)"
   sodipodi:docname="xfce-shapes.svg"
   xmlns:inkscape="http://www.inkscape.org/namespaces/inkscape"
   xmlns:sodipodi="http://sodipodi.sourceforge.net/DTD/sodipodi-0.dtd"
   xmlns="http://www.w3.org/2000/svg"
   xmlns:svg="http://www.w3.org/2000/svg"
   xmlns:rdf="http://www.w3.org/1999/02/22-rdf-syntax-ns#"
   xmlns:cc="http://creativecommons.org/ns#">
  <sodipodi:namedview
     id="namedview3005"
     pagecolor="#ffffff"
     bordercolor="#999999"
     borderopacity="1"
     inkscape:showpageshadow="0"
     inkscape:pageopacity="0"
     inkscape:pagecheckerboard="0"
     inkscape:deskcolor="#d1d1d1"
     inkscape:document-units="mm"
     showgrid="false"
     inkscape:zoom="0.2973261"
     inkscape:cx="1811.1427"
     inkscape:cy="829.05604"
     inkscape:window-width="3840"
     inkscape:window-height="2132"
     inkscape:window-x="0"
     inkscape:window-y="0"
     inkscape:window-maximized="1"
     inkscape:current-layer="layer1" />
  <defs
     id="defs3000" />
  <g
     inkscape:label="Слой 1"
     inkscape:groupmode="layer"
     id="layer1"
     transform="translate(294.77839,56.523199)">
    <rect
       style="fill:#1d273a;fill-opacity:1;stroke-width:0.638572;stroke-linecap:round;stroke-linejoin:round;paint-order:stroke fill markers"
       id="rect9705"
       width="676.98053"
       height="380.9993"
       x="-294.77786"
       y="-56.522877"
       inkscape:export-filename="rect9705.png"
       inkscape:export-xdpi="96"
       inkscape:export-ydpi="96" />
    <g
       id="g9739"
       transform="matrix(0.16973852,0,0,0.16982665,-11.664351,105.1047)"
       style="fill:#00aade;fill-opacity:1;stroke-width:0.998999;stroke-dasharray:none">
      <g
         inkscape:label="Layer 1"
         id="g9707"
         transform="translate(-35.477954,-382.24677)"
         style="fill:#00aade;fill-opacity:1;stroke-width:0.998999;stroke-dasharray:none" />
      <g
         id="g9715"
         inkscape:label="Big X"
         transform="translate(-35.477954,-382.24677)"
         style="fill:#00aade;fill-opacity:1;stroke-width:0.998999;stroke-dasharray:none">
        <g
           inkscape:groupmode="layer"
           id="g9709"
           inkscape:label="X_Shadow"
           style="fill:#00aade;fill-opacity:1;stroke-width:0.998999;stroke-dasharray:none" />
        <g
           inkscape:groupmode="layer"
           id="g9711"
           inkscape:label="X_Path"
           style="fill:#00aade;fill-opacity:1;stroke-width:0.998999;stroke-dasharray:none" />
        <g
           inkscape:groupmode="layer"
           id="g9713"
           inkscape:label="X_Gloss"
           style="fill:#00aade;fill-opacity:1;stroke-width:0.998999;stroke-dasharray:none" />
      </g>
      <g
         id="g9723"
         inkscape:label="Xfce"
         transform="translate(-35.477954,-382.24677)"
         style="fill:#00aade;fill-opacity:1;stroke-width:0.998999;stroke-dasharray:none">
        <g
           inkscape:groupmode="layer"
           id="g9717"
           inkscape:label="Xfce_Shadow"
           style="fill:#00aade;fill-opacity:1;stroke-width:0.998999;stroke-dasharray:none" />
        <g
           inkscape:groupmode="layer"
           id="g9719"
           inkscape:label="Xfce_Path"
           style="fill:#00aade;fill-opacity:1;stroke-width:0.998999;stroke-dasharray:none" />
        <g
           inkscape:groupmode="layer"
           id="g9721"
           inkscape:label="Xfce_Gloss"
           style="fill:#00aade;fill-opacity:1;stroke-width:0.998999;stroke-dasharray:none" />
      </g>
      <g
         id="g9737"
         inkscape:label="Mouse"
         transform="translate(-35.477954,-382.24677)"
         style="fill:#00aade;fill-opacity:1;stroke-width:0.998999;stroke-dasharray:none">
        <g
           inkscape:groupmode="layer"
           id="g9725"
           inkscape:label="Mouse_Shadow"
           style="fill:#00aade;fill-opacity:1;stroke-width:0.998999;stroke-dasharray:none" />
        <g
           inkscape:groupmode="layer"
           id="g9733"
           inkscape:label="Mouse_Path"
           style="fill:#00aade;fill-opacity:1;stroke-width:0.998999;stroke-dasharray:none">
          <path
             inkscape:connector-curvature="0"
             d="m 686.01129,438.94339 c -3.353,-2.77349 -29.64674,38.71236 -23.83256,43.01749 3.49603,2.61546 25.33033,-41.53853 23.83256,-43.01749 z"
             id="path9727"
             style="fill:#00aade;fill-opacity:1;fill-rule:evenodd;stroke:none;stroke-width:0.998999;stroke-linecap:butt;stroke-linejoin:miter;stroke-miterlimit:4;stroke-dasharray:none;stroke-opacity:1"
             inkscape:export-filename="/home/knome/Stuff/xubuntu-mouse-draft-2.png"
             inkscape:export-xdpi="1026.8827"
             inkscape:export-ydpi="1026.8827" />
          <path
             inkscape:connector-curvature="0"
             d="m 655.78463,433.1306 c -1.65949,-1.92678 -10.46548,42.78039 -6.39371,44.75985 3.49601,2.61546 9.58499,-42.43418 6.39371,-44.75985 z"
             id="path9729"
             style="fill:#00aade;fill-opacity:1;fill-rule:evenodd;stroke:none;stroke-width:0.998999;stroke-linecap:butt;stroke-linejoin:miter;stroke-miterlimit:4;stroke-dasharray:none;stroke-opacity:1"
             inkscape:export-filename="/home/knome/Stuff/xubuntu-mouse-draft-2.png"
             inkscape:export-xdpi="1026.8827"
             inkscape:export-ydpi="1026.8827" />
          <path
             inkscape:connector-curvature="0"
             style="fill:#00aade;fill-opacity:1;fill-rule:evenodd;stroke:none;stroke-width:0.998999;stroke-linecap:butt;stroke-linejoin:miter;stroke-miterlimit:4;stroke-dasharray:none;stroke-opacity:1"
             d="m 37.625,384.15853 c -3.443355,1.88538 27.552632,22.09367 85.46875,45.9375 57.91987,23.84382 137.92965,84.27698 131.65625,94.03125 -18.81237,26.49691 -29.90817,58.18792 -22.25,112.46875 1.38111,9.55483 -28.31634,26.14558 -26.15625,40.5625 1.80637,10.9698 33.19295,-10.87512 36.625,-6.5625 2.0999,7.74098 -16.79186,46.91895 -9.15625,49.71875 5.58462,1.6596 54.67873,-46.58659 57.53125,-45.78125 80.96219,24.47603 186.3041,5.99395 188.34375,5.21875 -0.19196,-0.42524 75.80178,35.72642 82.40625,31.40625 16.65983,-18.04093 -31.57326,-43.46801 -23.53125,-53.625 3.52614,-5.31744 58.74796,19.9643 61.46875,13.0625 3.95898,-11.94824 -25.64187,-37.03634 -30.09375,-44.46875 -3.87242,-6.85285 -4.71239,-17.9194 5.21875,-24.84375 9.9349,-6.92434 111.50996,-45.77552 107.25,-75.84375 -7.36468,-54.63458 -128.82052,-58.18257 -130.78125,-62.78125 -0.92191,-2.1601 5.3446,-78.12685 -30.09375,-64.09375 -21.81925,8.12105 -4.00496,56.52301 -2.59375,62.78125 1.30204,5.7615 -9.70773,5.15389 -11.78125,2.625 -4.6287,-5.65237 -19.9116,-56.10291 -37.9375,-47.09375 -25.28137,13.939 -1.48853,57.43256 -6.53125,58.84375 -9.36668,5.23466 -8.83606,18.02087 -16.34375,28.4375 -12.38092,17.74363 -105.021,-8.31111 -134.96875,-10.125 -21.92462,-1.29455 -42.8956,16.69428 -44.875,14.40625 -26.69638,-26.73399 -81.9285,-73.2869 -142.4375,-88.75 C 90.129469,410.48114 39.649614,383.81985 37.625,384.15853 Z m 529.46875,102.21875 c 5.78951,-10e-6 10.46875,5.34579 10.46875,11.9375 2e-5,6.59167 -4.67924,11.9375 -10.46875,11.9375 -5.78954,0 -10.5,-5.34583 -10.5,-11.9375 10e-6,-6.59171 4.71046,-11.9375 10.5,-11.9375 z m -23.53125,7.25 c 4.45553,19.23387 11.41036,25.36339 32.28125,24.75 -26.56462,24.35939 -42.70923,-17.37781 -32.28125,-24.75 z M 601,543.90853 c 1.08692,0.0412 1.92367,0.28894 2.46875,0.8125 10.46545,3.79336 -44.97502,23.75615 -45.34375,20.9375 -0.57648,-2.01216 32.36808,-22.14821 42.875,-21.75 z m 5.625,12.78125 c 0.57282,-0.0444 1.07711,0.032 1.5,0.25 9.87845,9.8145 -31.27532,31.57642 -30.8125,30.8125 -3.31635,-2.00393 20.72016,-30.39586 29.3125,-31.0625 z"
             id="path9731" />
        </g>
        <g
           inkscape:groupmode="layer"
           id="g9735"
           inkscape:label="Mouse_Gloss"
           style="fill:#00aade;fill-opacity:1;stroke-width:0.998999;stroke-dasharray:none" />
      </g>
    </g>
  </g>
  <metadata
     id="metadata3947">
    <rdf:RDF>
      <cc:Work
         rdf:about="">
        <cc:license
           rdf:resource="http://creativecommons.org/licenses/by-sa/4.0/" />
      </cc:Work>
      <cc:License
         rdf:about="http://creativecommons.org/licenses/by-sa/4.0/">
        <cc:permits
           rdf:resource="http://creativecommons.org/ns#Reproduction" />
        <cc:permits
           rdf:resource="http://creativecommons.org/ns#Distribution" />
        <cc:requires
           rdf:resource="http://creativecommons.org/ns#Notice" />
        <cc:requires
           rdf:resource="http://creativecommons.org/ns#Attribution" />
        <cc:permits
           rdf:resource="http://creativecommons.org/ns#DerivativeWorks" />
        <cc:requires
           rdf:resource="http://creativecommons.org/ns#ShareAlike" />
      </cc:License>
    </rdf:RDF>
  </metadata>
</svg>
